<svg id="_x31__x2C_5" enable-background="new 0 0 36 36" height="512" viewBox="0 0 36 36" width="512" xmlns="http://www.w3.org/2000/svg"><g><path d="m27.623 31.833c-6.917 0-11.667 3.583-15 3.583s-10.333-1.916-10.333-17.249 9.417-17.584 13.083-17.584c17.167 0 24.5 31.25 12.25 31.25z" fill="#efefef"/></g><g><path d="m5.854 10.125h2v1h-2z" fill="#a4afc1"/></g><g><path d="m8.854 6.875h1v2h-1z" fill="#a4afc1"/></g><g><path d="m6.75 18.75v8.5h2.75l2-7.386s-1.458-1.114-4.75-1.114z" fill="#2fdf84"/></g><g><path d="m26.75 24c-1.298 0-2.805.628-4.25 1.071v-.431c0-.95-.67-1.77-1.6-1.96l-9.63-1.97-1.49 5.42c1.91.9 6.83 3.12 9.22 3.12 3 0 10.25-4 10.25-4s-.5-1.25-2.5-1.25z" fill="#f3f3f1"/></g><g><path d="m27.75 16.25h-8.5c-.828 0-1.5-.672-1.5-1.5v-4.5h11.5v4.5c0 .828-.672 1.5-1.5 1.5z" fill="#f3f3f1"/></g><g><path d="m29.25 10.25h-11.5v-2c0-.828.672-1.5 1.5-1.5h8.5c.828 0 1.5.672 1.5 1.5z" fill="#2fdf84"/></g><g><path d="m6.75 18.75v8.5h2.25v-8.3c-.626-.117-1.367-.2-2.25-.2z" fill="#00b871"/></g><g><path d="m21.5 6.75h-2.25c-.828 0-1.5.672-1.5 1.5v2h2.25v-2c0-.828.672-1.5 1.5-1.5z" fill="#00b871"/></g><g><path d="m12.03 26.13 1.37-4.984-2.13-.436-1.49 5.42c1.91.9 6.83 3.12 9.22 3.12.314 0 .683-.052 1.077-.131-2.571-.483-6.411-2.218-8.047-2.989z" fill="#d5dbe1"/></g><g><path d="m20 14.75v-4.5h-2.25v4.5c0 .828.672 1.5 1.5 1.5h2.25c-.828 0-1.5-.672-1.5-1.5z" fill="#d5dbe1"/></g><g><path d="m9.5 28h-2.75c-.414 0-.75-.336-.75-.75v-8.5c0-.414.336-.75.75-.75 3.505 0 5.138 1.217 5.205 1.269.242.185.349.498.269.792l-2 7.386c-.089.326-.385.553-.724.553zm-2-1.5h1.426l1.698-6.271c-.523-.247-1.546-.615-3.125-.707v6.978z"/></g><g><path d="m19 30c-2.409 0-7.011-2-9.54-3.191l.64-1.357c4.11 1.938 7.354 3.049 8.9 3.049 2.028 0 6.632-2.19 9.044-3.454-.278-.159-.692-.296-1.294-.296-.878 0-1.963.361-3.013.712-1.163.388-2.366.788-3.487.788-2.108 0-4.889-1.003-5.006-1.045l.512-1.41c.026.01 2.652.955 4.494.955.878 0 1.963-.361 3.013-.712 1.163-.388 2.366-.788 3.487-.788 2.479 0 3.168 1.651 3.196 1.722.141.352-.002.752-.334.935-.302.166-7.455 4.092-10.612 4.092z"/></g><g><path d="m23.25 25.09h-1.5v-.45c0-.591-.421-1.106-1-1.226l-9.63-1.97.301-1.469 9.63 1.97c1.274.261 2.2 1.394 2.2 2.694v.451z"/></g><g><path d="m27.75 17h-8.5c-1.241 0-2.25-1.01-2.25-2.25v-6.5c0-1.24 1.009-2.25 2.25-2.25h8.5c1.241 0 2.25 1.01 2.25 2.25v6.5c0 1.24-1.009 2.25-2.25 2.25zm-8.5-9.5c-.414 0-.75.337-.75.75v6.5c0 .413.336.75.75.75h8.5c.414 0 .75-.337.75-.75v-6.5c0-.413-.336-.75-.75-.75z"/></g><g><path d="m17.75 9.5h11.5v1.5h-11.5z"/></g></svg>