<svg id="_x31__x2C_5" enable-background="new 0 0 36 36" height="512" viewBox="0 0 36 36" width="512" xmlns="http://www.w3.org/2000/svg"><g><path d="m31.833 27.623c0-6.917 3.583-11.667 3.583-15s-1.916-10.333-17.249-10.333-17.584 9.417-17.584 13.083c0 17.167 31.25 24.5 31.25 12.25z" fill="#efefef"/></g><g><path d="m11.5 5c-.827 0-1.5-.673-1.5-1.5s.673-1.5 1.5-1.5 1.5.673 1.5 1.5-.673 1.5-1.5 1.5zm0-2c-.275 0-.5.225-.5.5s.225.5.5.5.5-.225.5-.5-.225-.5-.5-.5z" fill="#a4afc1"/></g><g><path d="m28.25 10.75c.552 0 1 .448 1 1v11h-22.5v-11c0-.552.448-1 1-1z" fill="#f3f3f1"/></g><g><path d="m6.75 22.75h22.5v2.5c0 .552-.448 1-1 1h-20.5c-.552 0-1-.448-1-1z" fill="#2fdf84"/></g><g><path d="m19.75 26.25s.245 1.765 1.48 3h.02-6.5c1.25-1.25 1.48-3 1.48-3z" fill="#2fdf84"/></g><g><path d="m16.75 14.75v4.5l4.5-2.25z" fill="#2fdf84"/></g><g><path d="m9 25.25v-2.5h-2.25v2.5c0 .552.448 1 1 1h2.25c-.552 0-1-.448-1-1z" fill="#00b871"/></g><g><path d="m16.23 26.25s-.23 1.75-1.48 3h2.25c1.25-1.25 1.48-3 1.48-3z" fill="#00b871"/></g><g><path d="m19 15.875-2.25-1.125v4.5l2.25-1.125z" fill="#00b871"/></g><g><path d="m10 10.75h-2.25c-.552 0-1 .448-1 1v11h2.25v-11c0-.552.448-1 1-1z" fill="#d5dbe1"/></g><g><path d="m16.75 20c-.137 0-.273-.037-.395-.112-.22-.137-.355-.378-.355-.638v-4.5c0-.26.135-.501.355-.638.223-.138.499-.148.729-.033l4.5 2.25c.256.127.416.387.416.671s-.16.544-.415.671l-4.5 2.25c-.106.053-.221.079-.335.079zm.75-4.036v2.072l2.073-1.036z"/></g><g><path d="m28.25 27h-20.5c-.965 0-1.75-.785-1.75-1.75v-13.5c0-.965.785-1.75 1.75-1.75h20.5c.965 0 1.75.785 1.75 1.75v13.5c0 .965-.785 1.75-1.75 1.75zm-20.5-15.5c-.138 0-.25.112-.25.25v13.5c0 .138.112.25.25.25h20.5c.138 0 .25-.112.25-.25v-13.5c0-.138-.112-.25-.25-.25z"/></g><g><path d="m6.75 22h22.5v1.5h-22.5z"/></g><g><path d="m21.25 30h-6.5c-.304 0-.577-.183-.693-.463-.115-.28-.052-.603.163-.817 1.046-1.046 1.266-2.555 1.268-2.57l1.486.198c-.007.059-.147 1.066-.743 2.152h3.522c-.591-1.08-.737-2.088-.746-2.146l1.485-.209c.003.015.223 1.459 1.186 2.489.195.136.322.361.322.616 0 .414-.336.75-.75.75z"/></g><g><path d="m2 28.5h32v1.5h-32z"/></g></svg>