<svg id="_x31__x2C_5" enable-background="new 0 0 36 36" height="512" viewBox="0 0 36 36" width="512" xmlns="http://www.w3.org/2000/svg"><g><path d="m8.377 31.833c6.917 0 11.667 3.583 15 3.583s10.333-1.916 10.333-17.249-9.417-17.584-13.083-17.584c-17.167 0-24.5 31.25-12.25 31.25z" fill="#efefef"/></g><g><path d="m32.533 6.033h1v2h-1z" fill="#a4afc1" transform="matrix(.707 -.707 .707 .707 4.702 25.418)"/></g><g><path d="m28.467 1.967h1v2h-1z" fill="#a4afc1" transform="matrix(.707 -.707 .707 .707 6.386 21.352)"/></g><g><path d="m32.033 2.644h2v1h-2z" fill="#a4afc1" transform="matrix(.707 -.707 .707 .707 7.452 24.279)"/></g><g><path d="m27.25 28.25h-18.5c-1.105 0-2-.895-2-2v-15h22.5v15c0 1.105-.895 2-2 2z" fill="#f3f3f1"/></g><g><path d="m29.25 11.25h-22.5v-1.5c0-1.105.895-2 2-2h18.5c1.105 0 2 .895 2 2z" fill="#2fdf84"/></g><g><path d="m22 18.722c0-2.213-1.823-4.004-4.059-3.972-2.116.03-3.899 1.793-3.94 3.894-.026 1.36.796 2.568 1.889 3.302.562.378.861 1.045.861 1.722v.902c0 .457.224.679.5.679h1.5c.276 0 .5-.224.5-.5v-1.107c0-.665.295-1.318.848-1.688 1.078-.719 1.901-1.898 1.901-3.232z" fill="#2fdf84"/></g><g><path d="m19 24.571v-.902c0-.677-.299-1.344-.861-1.722-1.092-.735-1.915-1.942-1.889-3.302.034-1.736 1.264-3.225 2.882-3.712-.379-.112-.775-.188-1.192-.182-2.116.03-3.899 1.793-3.94 3.894-.026 1.36.796 2.568 1.889 3.302.562.378.861 1.045.861 1.722v.902c0 .457.224.679.5.679h1.5c.158 0 .293-.078.384-.192-.081-.113-.134-.272-.134-.487z" fill="#00b871"/></g><g><path d="m9.25 26.25v-15h-2.5v15c0 1.105.895 2 2 2h2.5c-1.105 0-2-.895-2-2z" fill="#d5dbe1"/></g><g><path d="m11 7.75h-2.25c-1.105 0-2 .895-2 2v1.5h2.25v-1.5c0-1.105.895-2 2-2z" fill="#00b871"/></g><g><path d="m18.75 26h-1.5c-.602 0-1.25-.447-1.25-1.43v-.901c0-.459-.203-.88-.529-1.1-1.419-.955-2.249-2.428-2.22-3.939.048-2.516 2.146-4.593 4.679-4.63 1.281-.01 2.502.468 3.415 1.37.906.894 1.405 2.084 1.405 3.353 0 1.481-.836 2.923-2.235 3.856-.318.212-.515.619-.515 1.064v1.107c0 .689-.561 1.25-1.25 1.25zm-1.25-1.5h1v-.857c0-.954.442-1.817 1.183-2.312.981-.654 1.567-1.63 1.567-2.608 0-.864-.34-1.676-.958-2.285-.626-.616-1.44-.902-2.341-.938-1.702.025-3.168 1.472-3.2 3.159-.02 1 .562 1.996 1.558 2.666.746.502 1.191 1.378 1.191 2.344z"/></g><g><path d="m27.25 29h-18.5c-1.517 0-2.75-1.233-2.75-2.75v-16.5c0-1.517 1.233-2.75 2.75-2.75h18.5c1.517 0 2.75 1.233 2.75 2.75v16.5c0 1.517-1.233 2.75-2.75 2.75zm-18.5-20.5c-.689 0-1.25.561-1.25 1.25v16.5c0 .689.561 1.25 1.25 1.25h18.5c.689 0 1.25-.561 1.25-1.25v-16.5c0-.689-.561-1.25-1.25-1.25z"/></g><g><path d="m6.75 10.5h22.5v1.5h-22.5z"/></g><g><path d="m2 27.5h32v1.5h-32z"/></g></svg>